<svg width="20" height="20" viewBox="0 0 20 20" fill="none" xmlns="http://www.w3.org/2000/svg">
<g clip-path="url(#clip0_195_247)">
<path d="M20 0H0V20H20V0Z" fill="#888888"/>
<path d="M8.84375 9.59375C8.84375 9.59375 9.96875 9.5 9.96875 8.1875C9.96875 6.875 9.0625 6.25 7.90625 6.25H4.0625V13.625H7.90625C7.90625 13.625 10.25 13.6875 10.25 11.4375C10.2187 11.4375 10.3438 9.59375 8.84375 9.59375ZM5.75 7.5625H7.90625C7.90625 7.5625 8.4375 7.5625 8.4375 8.34375C8.4375 9.125 8.125 9.21875 7.78125 9.21875H5.78125V7.5625H5.75ZM7.78125 12.2812H5.75V10.3125H7.90625C7.90625 10.3125 8.6875 10.3125 8.6875 11.3125C8.65625 12.1875 8.09375 12.2812 7.78125 12.2812Z" fill="#F7F7F7"/>
<path d="M14.8125 6.6875H11.7812V7.59375H14.8125V6.6875Z" fill="#F7F7F7"/>
<path d="M13.3438 8.125C10.5001 8.125 10.5001 10.9687 10.5001 10.9687C10.5001 10.9687 10.3126 13.7812 13.3438 13.7812C13.3438 13.7812 15.8751 13.9375 15.8751 11.8125H14.5626C14.5626 11.8125 14.5938 12.5938 13.3751 12.5938C13.3751 12.5938 12.0626 12.6875 12.0626 11.3125H15.8751C15.9063 11.3125 16.3438 8.125 13.3438 8.125ZM12.0938 10.3125C12.0938 10.3125 12.2501 9.1875 13.3751 9.1875C14.5001 9.1875 14.5001 10.3125 14.5001 10.3125H12.0938Z" fill="#F7F7F7"/>
</g>
<defs>
<clipPath id="clip0_195_247">
<rect width="20" height="20" rx="2" fill="white"/>
</clipPath>
</defs>
</svg>
