<svg width="20" height="20" viewBox="0 0 20 20" fill="none" xmlns="http://www.w3.org/2000/svg">
<path d="M17.0409 16.8729H14.0776V12.2779C14.0776 11.1821 14.0578 9.77159 12.5363 9.77159C10.9929 9.77159 10.7567 10.9654 10.7567 12.1981V16.8726H7.79336V7.42332H10.6382V8.71467H10.678C10.9627 8.23268 11.3741 7.83617 11.8684 7.56738C12.3627 7.29859 12.9214 7.16757 13.4849 7.18828C16.4884 7.18828 17.0422 9.14441 17.0422 11.6892L17.0409 16.8729ZM4.44969 6.13167C4.10957 6.13173 3.77706 6.03192 3.49422 5.84487C3.21139 5.65782 2.99094 5.39193 2.86073 5.08081C2.73051 4.7697 2.69638 4.42734 2.76268 4.09703C2.82897 3.76672 2.99271 3.46329 3.23317 3.22511C3.47363 2.98694 3.78002 2.82471 4.11359 2.75895C4.44716 2.69319 4.79293 2.72685 5.10719 2.85567C5.42144 2.98449 5.69006 3.20269 5.87907 3.48267C6.06808 3.76265 6.16901 4.09184 6.16907 4.42861C6.16911 4.65222 6.12466 4.87365 6.03827 5.08025C5.95189 5.28685 5.82527 5.47458 5.66561 5.63273C5.50595 5.79087 5.31638 5.91633 5.10775 6.00193C4.89913 6.08754 4.67552 6.13163 4.44969 6.13167ZM5.93137 16.8729H2.96491V7.42332H5.93137V16.8729ZM18.5183 0.00134917H1.47583C1.08901 -0.00297306 0.716265 0.14494 0.439533 0.412584C0.162802 0.680229 0.00472088 1.04571 0 1.42871V18.3734C0.00455931 18.7565 0.162547 19.1223 0.43927 19.3902C0.715992 19.6581 1.08882 19.8063 1.47583 19.8022H18.5183C18.9061 19.8071 19.28 19.6593 19.5578 19.3914C19.8356 19.1234 19.9946 18.7573 20 18.3734V1.42749C19.9945 1.04373 19.8353 0.677831 19.5575 0.410193C19.2797 0.142555 18.9059 -0.00493527 18.5183 0.000126093" fill="#888888"/>
</svg>
